<?xml version="1.0" encoding="UTF-8" standalone="no"?>
<!DOCTYPE svg PUBLIC "-//W3C//DTD SVG 1.1//EN" "http://www.w3.org/Graphics/SVG/1.1/DTD/svg11.dtd">
<svg width="100%" height="100%" viewBox="0 0 1920 1080" version="1.1" xmlns="http://www.w3.org/2000/svg" xmlns:xlink="http://www.w3.org/1999/xlink" xml:space="preserve" xmlns:serif="http://www.serif.com/" style="fill-rule:evenodd;clip-rule:evenodd;stroke-linejoin:round;stroke-miterlimit:2;">
    <g transform="matrix(0.516873,0,0,0.577308,125.003,-3.31007)">
        <path d="M286.239,-105.434C283.165,-58.404 250.806,-10.885 230.88,29.864C190.32,112.808 148.191,194.892 103.722,275.819C-46.847,549.834 -211.192,822.948 -426.56,1051.67C-432.066,1057.52 -431.234,1066.27 -424.702,1071.2C-418.171,1076.13 -408.399,1075.39 -402.893,1069.54C-185.933,839.121 -20.184,564.094 131.498,288.053C176.17,206.758 218.492,124.301 259.236,40.979C280.505,-2.514 313.86,-53.617 317.141,-103.815C317.64,-111.45 311.122,-118.012 302.594,-118.458C294.066,-118.905 286.737,-113.069 286.239,-105.434Z" style="fill:url(#_Linear1);"/>
    </g>
    <path d="M263.631,1144.26C329.578,1146.49 403.611,1136.32 468.667,1131.27C573.906,1123.12 679.189,1115.52 784.496,1108.28C1126.85,1084.74 1469.57,1073.09 1812.68,1070.42C1928.24,1069.52 2043.79,1068.92 2159.35,1068.92C2225.19,1068.92 2292.11,1067.1 2357.76,1073.09C2362.16,1073.49 2366.05,1070.24 2366.45,1065.85C2366.86,1061.45 2363.61,1057.55 2359.21,1057.15C2293.08,1051.12 2225.67,1052.92 2159.35,1052.92C2043.75,1052.92 1928.15,1053.52 1812.56,1054.42C1469.12,1057.09 1126.08,1068.76 783.398,1092.31C678.046,1099.56 572.716,1107.16 467.43,1115.32C402.937,1120.32 329.549,1130.48 264.173,1128.27C259.76,1128.12 256.056,1131.58 255.907,1135.99C255.757,1140.41 259.218,1144.11 263.631,1144.26Z" style="fill:url(#_Linear2);"/>
    <g transform="matrix(0.512965,0,0,0.591204,513.916,-28.7996)">
        <path d="M1196.54,-99.975C1198.28,-90.049 1206.41,-75.643 1218.38,-59.873C1242.92,-27.527 1283.27,12.404 1299.27,29.864C1401.6,141.575 1516.66,244.286 1629.55,345.105C1827.94,522.293 2031.58,694.248 2240.89,858.421C2354.87,947.821 2469.51,1036.26 2589.8,1117.06C2749.26,1224.18 2950.49,1343.41 3149.78,1343.41C3158.39,1343.41 3165.38,1337.35 3165.38,1329.88C3165.38,1322.41 3158.39,1316.35 3149.78,1316.35C2956.96,1316.35 2763.18,1199.3 2608.89,1095.66C2489.23,1015.28 2375.2,927.282 2261.81,838.345C2052.99,674.562 1849.84,503.013 1651.92,326.246C1539.74,226.063 1425.38,124.031 1323.69,13.024C1308.03,-4.066 1268.45,-43.094 1244.43,-74.754C1235.58,-86.418 1228.66,-96.693 1227.38,-104.034C1226.09,-111.418 1218.13,-116.503 1209.62,-115.383C1201.11,-114.263 1195.25,-107.358 1196.54,-99.975Z" style="fill:url(#_Linear3);"/>
    </g>
    <g transform="matrix(0.741348,0,0,0.545646,-112.461,362.001)">
        <path d="M-122.86,800.575C226.634,918.342 570.257,1065.14 889.99,1249.8C972.141,1297.25 1051.14,1350.57 1131.02,1401.62C1136.4,1405.07 1142.84,1401.92 1145.37,1394.6C1147.91,1387.28 1145.59,1378.53 1140.2,1375.09C1060.08,1323.88 980.836,1270.41 898.433,1222.81C577.673,1037.56 232.953,890.26 -117.664,772.115C-123.445,770.167 -129.302,774.962 -130.736,782.816C-132.17,790.67 -128.64,798.627 -122.86,800.575Z" style="fill:url(#_Linear4);"/>
    </g>
    <defs>
        <linearGradient id="_Linear1" x1="0" y1="0" x2="1" y2="0" gradientUnits="userSpaceOnUse" gradientTransform="matrix(716.416,0,0,1165.23,-414.726,477.991)"><stop offset="0" style="stop-color:rgb(8,255,0);stop-opacity:1"/><stop offset="1" style="stop-color:rgb(255,186,0);stop-opacity:1"/></linearGradient>
        <linearGradient id="_Linear2" x1="0" y1="0" x2="1" y2="0" gradientUnits="userSpaceOnUse" gradientTransform="matrix(2094.59,0,0,75.9159,263.902,1098.62)"><stop offset="0" style="stop-color:rgb(255,0,237);stop-opacity:1"/><stop offset="1" style="stop-color:rgb(0,7,255);stop-opacity:1"/></linearGradient>
        <linearGradient id="_Linear3" x1="0" y1="0" x2="1" y2="0" gradientUnits="userSpaceOnUse" gradientTransform="matrix(1937.82,0,0,1431.88,1211.96,613.937)"><stop offset="0" style="stop-color:rgb(0,237,255);stop-opacity:1"/><stop offset="1" style="stop-color:rgb(255,251,0);stop-opacity:1"/></linearGradient>
        <linearGradient id="_Linear4" x1="0" y1="0" x2="1" y2="0" gradientUnits="userSpaceOnUse" gradientTransform="matrix(1255.87,0,0,602.012,-120.262,1087.35)"><stop offset="0" style="stop-color:rgb(255,0,250);stop-opacity:1"/><stop offset="1" style="stop-color:rgb(255,112,0);stop-opacity:1"/></linearGradient>
    </defs>
</svg>
